<svg xmlns="http://www.w3.org/2000/svg" xmlns:xlink="http://www.w3.org/1999/xlink" width="1080" zoomAndPan="magnify" viewBox="0 0 810 809.999993" height="1080" preserveAspectRatio="xMidYMid meet" version="1.0"><defs><g/><clipPath id="id1"><path d="M 106.976562 127.828125 L 762.511719 127.828125 L 762.511719 783.363281 L 106.976562 783.363281 Z M 106.976562 127.828125 " clip-rule="nonzero"/></clipPath><clipPath id="id2"><path d="M 440 489 L 600 489 L 600 633.648438 L 440 633.648438 Z M 440 489 " clip-rule="nonzero"/></clipPath></defs><g clip-path="url(#id1)"><path fill="#d9e8e3" d="M 434.746094 783.363281 C 347.234375 783.363281 264.835938 749.304688 203 687.339844 C 141.039062 625.503906 106.976562 543.105469 106.976562 455.59375 C 106.976562 368.085938 141.039062 285.683594 203 223.851562 C 264.835938 161.886719 347.234375 127.828125 434.746094 127.828125 C 522.253906 127.828125 604.65625 161.886719 666.488281 223.851562 C 728.453125 285.816406 762.511719 368.085938 762.511719 455.59375 C 762.511719 543.105469 728.453125 625.503906 666.488281 687.339844 C 604.65625 749.300781 522.253906 783.363281 434.746094 783.363281 Z M 434.746094 147.476562 C 352.476562 147.476562 275.050781 179.574219 216.886719 237.738281 C 158.722656 295.902344 126.628906 373.324219 126.628906 455.59375 C 126.628906 537.863281 158.722656 615.289062 216.886719 673.453125 C 275.050781 731.617188 352.476562 763.714844 434.746094 763.714844 C 517.015625 763.714844 594.4375 731.617188 652.601562 673.453125 C 710.765625 615.289062 742.863281 537.863281 742.863281 455.59375 C 742.863281 373.324219 710.765625 295.902344 652.601562 237.738281 C 594.4375 179.574219 517.015625 147.476562 434.746094 147.476562 Z M 434.746094 147.476562 " fill-opacity="1" fill-rule="nonzero"/></g><path fill="#d9e8e3" d="M 496.90625 442.328125 L 572.070312 396.425781 L 605.746094 462.785156 C 613.882812 499.042969 569.304688 512.351562 533.507812 510.183594 L 496.902344 442.328125 Z M 496.90625 442.328125 " fill-opacity="1" fill-rule="evenodd"/><g clip-path="url(#id2)"><path fill="#d9e8e3" d="M 479.820312 489.730469 L 440.285156 561.078125 L 479.820312 633.425781 L 480.796875 604.484375 L 516.914062 604.484375 C 530.09375 605.648438 547.179688 596.835938 553.523438 584.027344 L 599.894531 497.210938 C 584.601562 512.679688 564.933594 516.671875 542.300781 516.671875 L 481.289062 516.671875 L 479.824219 489.726562 Z M 479.820312 489.730469 " fill-opacity="1" fill-rule="evenodd"/></g><path fill="#d9e8e3" d="M 391.488281 401.761719 L 315.746094 356.863281 L 356.15625 294.554688 C 383.214844 269.683594 416.234375 303.070312 431.757812 336.109375 Z M 391.488281 401.761719 " fill-opacity="1" fill-rule="evenodd"/><path fill="#d9e8e3" d="M 440.324219 394.023438 L 520.535156 394.726562 L 563.222656 324.273438 L 538 337.449219 L 520.46875 305.167969 C 515.066406 292.824219 499.234375 281.835938 485.203125 282.378906 L 388.441406 283.078125 C 409.09375 289.238281 422.050781 304.875 433.039062 325.109375 L 462.652344 379.636719 L 440.320312 394.023438 Z M 440.324219 394.023438 " fill-opacity="1" fill-rule="evenodd"/><path fill="#d9e8e3" d="M 257.78125 398.042969 L 281.25 416.390625 L 259.164062 458.726562 C 248.117188 478.25 267.09375 497.265625 279.179688 503.886719 C 291.082031 510.402344 309.554688 511.175781 326.808594 510.941406 L 357.871094 460.136719 L 381.339844 472.839844 L 340.617188 397.339844 L 257.785156 398.042969 Z M 257.78125 398.042969 " fill-opacity="1" fill-rule="evenodd"/><path fill="#d9e8e3" d="M 261.234375 496.125 L 311.621094 589.269531 C 321.746094 602.207031 340.84375 605.261719 360.632812 604.792969 L 413.78125 604.792969 L 413.78125 516.59375 L 313.003906 515.886719 C 297.355469 516.828125 276.878906 513.535156 261.234375 496.128906 Z M 261.234375 496.125 " fill-opacity="1" fill-rule="evenodd"/><g fill="#ffffff" fill-opacity="1"><g transform="translate(299.040836, 287.533187)"><g><path d="M -1.890625 -35.703125 L 1.203125 -37.828125 C 4.242188 -39.898438 6.144531 -41.9375 6.90625 -43.9375 C 7.664062 -45.945312 7.300781 -48.039062 5.8125 -50.21875 C 4.34375 -52.375 2.554688 -53.398438 0.453125 -53.296875 C -1.640625 -53.203125 -4.238281 -52.097656 -7.34375 -49.984375 L -10.265625 -47.984375 Z M 3.453125 -27.890625 L 15.34375 -10.46875 L 5.71875 -3.90625 L -25.28125 -49.296875 L -12.0625 -58.328125 C -5.894531 -62.535156 -0.5625 -64.523438 3.9375 -64.296875 C 8.4375 -64.078125 12.25 -61.679688 15.375 -57.109375 C 17.1875 -54.441406 18.066406 -51.5625 18.015625 -48.46875 C 17.960938 -45.382812 17 -42.335938 15.125 -39.328125 C 28.914062 -33.796875 37.863281 -30.238281 41.96875 -28.65625 L 31.296875 -21.375 L 8.578125 -31.390625 Z M 3.453125 -27.890625 "/></g></g></g><g fill="#ffffff" fill-opacity="1"><g transform="translate(342.092188, 258.688682)"><g><path d="M 10.109375 -40.609375 C 7.828125 -39.773438 6.300781 -38.394531 5.53125 -36.46875 C 4.769531 -34.550781 4.785156 -32.226562 5.578125 -29.5 L 20.6875 -35.015625 C 19.664062 -37.660156 18.21875 -39.460938 16.34375 -40.421875 C 14.476562 -41.378906 12.398438 -41.441406 10.109375 -40.609375 Z M 23.78125 -7.875 C 17.414062 -5.5625 11.804688 -5.503906 6.953125 -7.703125 C 2.097656 -9.898438 -1.5 -14.21875 -3.84375 -20.65625 C -6.257812 -27.269531 -6.46875 -32.988281 -4.46875 -37.8125 C -2.476562 -42.632812 1.425781 -46.109375 7.25 -48.234375 C 12.84375 -50.273438 17.769531 -50.269531 22.03125 -48.21875 C 26.289062 -46.164062 29.445312 -42.335938 31.5 -36.734375 L 33.40625 -31.515625 L 7.953125 -22.234375 C 9.179688 -19.210938 10.953125 -17.148438 13.265625 -16.046875 C 15.585938 -14.941406 18.28125 -14.953125 21.34375 -16.078125 C 23.71875 -16.941406 25.875 -18.003906 27.8125 -19.265625 C 29.757812 -20.535156 31.691406 -22.132812 33.609375 -24.0625 L 36.640625 -15.71875 C 35.097656 -14.09375 33.335938 -12.660156 31.359375 -11.421875 C 29.390625 -10.179688 26.863281 -9 23.78125 -7.875 Z M 23.78125 -7.875 "/></g></g></g><g fill="#ffffff" fill-opacity="1"><g transform="translate(385.915096, 242.643337)"><g><path d="M 19.296875 -1.28125 C 14.390625 -0.757812 10.332031 -2.253906 7.125 -5.765625 C 3.914062 -9.285156 1.953125 -14.425781 1.234375 -21.1875 C 0.515625 -28.039062 1.378906 -33.53125 3.828125 -37.65625 C 6.273438 -41.789062 10.003906 -44.125 15.015625 -44.65625 C 20.273438 -45.207031 24.507812 -43.582031 27.71875 -39.78125 L 28.09375 -39.828125 C 27.1875 -42.878906 26.601562 -45.628906 26.34375 -48.078125 L 24.9375 -61.453125 L 36.375 -62.65625 L 42.515625 -4.484375 L 33.765625 -3.5625 L 30.984375 -8.75 L 30.5 -8.703125 C 28.332031 -4.316406 24.597656 -1.84375 19.296875 -1.28125 Z M 22.34375 -10.796875 C 25.257812 -11.097656 27.304688 -12.164062 28.484375 -14 C 29.660156 -15.84375 30.097656 -18.800781 29.796875 -22.875 L 29.671875 -24.109375 C 29.191406 -28.597656 28.15625 -31.738281 26.5625 -33.53125 C 24.976562 -35.332031 22.628906 -36.070312 19.515625 -35.75 C 16.972656 -35.476562 15.113281 -34.1875 13.9375 -31.875 C 12.757812 -29.570312 12.382812 -26.367188 12.8125 -22.265625 C 13.25 -18.148438 14.285156 -15.140625 15.921875 -13.234375 C 17.554688 -11.328125 19.695312 -10.515625 22.34375 -10.796875 Z M 22.34375 -10.796875 "/></g></g></g><g fill="#ffffff" fill-opacity="1"><g transform="translate(435.236288, 237.427761)"><g><path d="M 35.390625 5.375 L 34.671875 -0.171875 L 34.09375 -0.25 C 32.570312 1.5 30.617188 2.726562 28.234375 3.4375 C 25.847656 4.144531 23.226562 4.28125 20.375 3.84375 C 15.488281 3.101562 12.003906 1.238281 9.921875 -1.75 C 7.847656 -4.738281 7.1875 -8.679688 7.9375 -13.578125 L 12.046875 -40.671875 L 23.359375 -38.953125 L 19.671875 -14.6875 C 19.210938 -11.695312 19.40625 -9.367188 20.25 -7.703125 C 21.09375 -6.046875 22.6875 -5.039062 25.03125 -4.6875 C 28.195312 -4.207031 30.644531 -4.914062 32.375 -6.8125 C 34.101562 -8.71875 35.34375 -12.128906 36.09375 -17.046875 L 39.0625 -36.578125 L 50.40625 -34.84375 L 44.09375 6.703125 Z M 35.390625 5.375 "/></g></g></g><g fill="#ffffff" fill-opacity="1"><g transform="translate(486.442401, 246.02247)"><g><path d="M 21.09375 9.390625 C 8.976562 4.453125 5.628906 -4.664062 11.046875 -17.96875 C 13.734375 -24.570312 17.4375 -28.953125 22.15625 -31.109375 C 26.875 -33.265625 32.304688 -33.09375 38.453125 -30.59375 C 42.960938 -28.757812 46.644531 -26.226562 49.5 -23 L 43.015625 -16.0625 C 41.628906 -17.414062 40.300781 -18.597656 39.03125 -19.609375 C 37.769531 -20.617188 36.414062 -21.421875 34.96875 -22.015625 C 29.445312 -24.253906 25.085938 -21.453125 21.890625 -13.609375 C 18.796875 -5.992188 20.007812 -1.066406 25.53125 1.171875 C 27.582031 2.003906 29.585938 2.503906 31.546875 2.671875 C 33.503906 2.835938 35.597656 2.691406 37.828125 2.234375 L 34.125 11.3125 C 31.96875 11.707031 29.925781 11.753906 28 11.453125 C 26.070312 11.160156 23.769531 10.472656 21.09375 9.390625 Z M 21.09375 9.390625 "/></g></g></g><g fill="#ffffff" fill-opacity="1"><g transform="translate(524.763142, 261.471149)"><g><path d="M 39.078125 -14.96875 C 37.085938 -16.363281 35.082031 -16.820312 33.0625 -16.34375 C 31.050781 -15.875 29.148438 -14.535156 27.359375 -12.328125 L 40.546875 -3.09375 C 42.128906 -5.445312 42.78125 -7.664062 42.5 -9.75 C 42.21875 -11.832031 41.078125 -13.570312 39.078125 -14.96875 Z M 20.078125 14.984375 C 14.535156 11.097656 11.273438 6.53125 10.296875 1.28125 C 9.316406 -3.957031 10.789062 -9.378906 14.71875 -14.984375 C 18.75 -20.753906 23.3125 -24.203125 28.40625 -25.328125 C 33.507812 -26.460938 38.601562 -25.25 43.6875 -21.6875 C 48.550781 -18.269531 51.367188 -14.226562 52.140625 -9.5625 C 52.910156 -4.894531 51.585938 -0.113281 48.171875 4.78125 L 44.984375 9.328125 L 22.765625 -6.21875 C 20.992188 -3.476562 20.320312 -0.84375 20.75 1.6875 C 21.1875 4.21875 22.738281 6.414062 25.40625 8.28125 C 27.476562 9.738281 29.585938 10.894531 31.734375 11.75 C 33.890625 12.613281 36.300781 13.28125 38.96875 13.75 L 33.875 21.03125 C 31.664062 20.6875 29.484375 20.0625 27.328125 19.15625 C 25.179688 18.25 22.765625 16.859375 20.078125 14.984375 Z M 20.078125 14.984375 "/></g></g></g><g fill="#ffffff" fill-opacity="1"><g transform="translate(298.386865, 641.047248)"><g><path d="M -34.28125 10.1875 L -37.0625 7.671875 C -39.789062 5.203125 -42.21875 3.835938 -44.34375 3.578125 C -46.476562 3.316406 -48.425781 4.160156 -50.1875 6.109375 C -51.9375 8.046875 -52.515625 10.023438 -51.921875 12.046875 C -51.335938 14.066406 -49.648438 16.335938 -46.859375 18.859375 L -44.25 21.21875 Z M -27.9375 3.171875 L -13.78125 -12.46875 L -5.140625 -4.640625 L -42.015625 36.125 L -53.890625 25.375 C -59.421875 20.363281 -62.601562 15.648438 -63.4375 11.234375 C -64.28125 6.816406 -62.84375 2.550781 -59.125 -1.5625 C -56.957031 -3.957031 -54.363281 -5.492188 -51.34375 -6.171875 C -48.332031 -6.847656 -45.144531 -6.625 -41.78125 -5.5 C -39.625 -20.207031 -38.257812 -29.738281 -37.6875 -34.09375 L -28.109375 -25.4375 L -32.53125 -0.984375 Z M -27.9375 3.171875 "/></g></g></g><g fill="#ffffff" fill-opacity="1"><g transform="translate(260.266259, 605.944176)"><g><path d="M -41.84375 -0.34375 C -40.5 1.675781 -38.800781 2.835938 -36.75 3.140625 C -34.707031 3.441406 -32.445312 2.890625 -29.96875 1.484375 L -38.875 -11.921875 C -41.207031 -10.304688 -42.625 -8.476562 -43.125 -6.4375 C -43.625 -4.40625 -43.195312 -2.375 -41.84375 -0.34375 Z M -13.234375 -21.28125 C -9.484375 -15.644531 -8.109375 -10.203125 -9.109375 -4.953125 C -10.109375 0.285156 -13.460938 4.796875 -19.171875 8.578125 C -25.035156 12.472656 -30.546875 14.015625 -35.703125 13.203125 C -40.867188 12.398438 -45.164062 9.410156 -48.59375 4.234375 C -51.882812 -0.710938 -53.03125 -5.5 -52.03125 -10.125 C -51.039062 -14.75 -48.0625 -18.710938 -43.09375 -22.015625 L -38.453125 -25.09375 L -23.46875 -2.515625 C -20.8125 -4.421875 -19.222656 -6.628906 -18.703125 -9.140625 C -18.179688 -11.660156 -18.820312 -14.28125 -20.625 -17 C -22.019531 -19.101562 -23.5625 -20.945312 -25.25 -22.53125 C -26.9375 -24.125 -28.941406 -25.625 -31.265625 -27.03125 L -23.859375 -31.9375 C -21.921875 -30.832031 -20.117188 -29.460938 -18.453125 -27.828125 C -16.785156 -26.203125 -15.046875 -24.019531 -13.234375 -21.28125 Z M -13.234375 -21.28125 "/></g></g></g><g fill="#ffffff" fill-opacity="1"><g transform="translate(234.351735, 567.245281)"><g><path d="M -11.84375 -33.78125 L -16.40625 -30.53125 L -16.21875 -29.984375 C -13.957031 -29.460938 -11.953125 -28.316406 -10.203125 -26.546875 C -8.453125 -24.773438 -7.101562 -22.523438 -6.15625 -19.796875 C -4.519531 -15.140625 -4.535156 -11.191406 -6.203125 -7.953125 C -7.867188 -4.710938 -11.039062 -2.269531 -15.71875 -0.625 L -41.578125 8.4375 L -45.359375 -2.375 L -22.203125 -10.5 C -19.335938 -11.5 -17.367188 -12.753906 -16.296875 -14.265625 C -15.234375 -15.785156 -15.09375 -17.660156 -15.875 -19.890625 C -16.9375 -22.921875 -18.710938 -24.753906 -21.203125 -25.390625 C -23.703125 -26.035156 -27.296875 -25.535156 -31.984375 -23.890625 L -50.625 -17.359375 L -54.40625 -28.171875 L -14.75 -42.078125 Z M -11.84375 -33.78125 "/></g></g></g><g fill="#ffffff" fill-opacity="1"><g transform="translate(217.980005, 517.89596)"><g><path d="M -16.109375 -33.859375 C -11.816406 -34.304688 -8.390625 -33.15625 -5.828125 -30.40625 C -3.273438 -27.664062 -1.6875 -23.328125 -1.0625 -17.390625 C -0.75 -14.359375 -0.679688 -11.75 -0.859375 -9.5625 C -1.046875 -7.375 -1.441406 -5.300781 -2.046875 -3.34375 L -11.484375 -2.34375 C -10.703125 -4.582031 -10.109375 -7.0625 -9.703125 -9.78125 C -9.304688 -12.5 -9.21875 -14.867188 -9.4375 -16.890625 C -9.863281 -21.035156 -11.273438 -22.984375 -13.671875 -22.734375 C -14.578125 -22.640625 -15.28125 -22.285156 -15.78125 -21.671875 C -16.28125 -21.066406 -16.816406 -20.050781 -17.390625 -18.625 C -17.960938 -17.207031 -18.609375 -15.328125 -19.328125 -12.984375 C -20.328125 -9.617188 -21.320312 -7.125 -22.3125 -5.5 C -23.300781 -3.875 -24.5 -2.640625 -25.90625 -1.796875 C -27.320312 -0.953125 -29.113281 -0.414062 -31.28125 -0.1875 C -35 0.195312 -38.023438 -0.941406 -40.359375 -3.609375 C -42.691406 -6.273438 -44.132812 -10.25 -44.6875 -15.53125 C -45.21875 -20.5625 -44.632812 -25.578125 -42.9375 -30.578125 L -34.359375 -28 C -35.035156 -25.8125 -35.5625 -23.773438 -35.9375 -21.890625 C -36.320312 -20.015625 -36.414062 -18.128906 -36.21875 -16.234375 C -35.863281 -12.867188 -34.773438 -11.28125 -32.953125 -11.46875 C -31.929688 -11.570312 -31.101562 -12.207031 -30.46875 -13.375 C -29.832031 -14.550781 -28.972656 -17.046875 -27.890625 -20.859375 C -26.921875 -24.265625 -25.9375 -26.785156 -24.9375 -28.421875 C -23.945312 -30.054688 -22.742188 -31.316406 -21.328125 -32.203125 C -19.921875 -33.085938 -18.179688 -33.640625 -16.109375 -33.859375 Z M -16.109375 -33.859375 "/></g></g></g><g fill="#ffffff" fill-opacity="1"><g transform="translate(213.600733, 478.048553)"><g><path d="M -31.703125 -27.3125 C -31.984375 -24.894531 -31.4375 -22.910156 -30.0625 -21.359375 C -28.695312 -19.816406 -26.617188 -18.78125 -23.828125 -18.25 L -21.953125 -34.234375 C -24.773438 -34.515625 -27.035156 -34.035156 -28.734375 -32.796875 C -30.429688 -31.554688 -31.421875 -29.726562 -31.703125 -27.3125 Z M 3.671875 -24.78125 C 2.878906 -18.050781 0.410156 -13.007812 -3.734375 -9.65625 C -7.890625 -6.3125 -13.367188 -5.039062 -20.171875 -5.84375 C -27.160156 -6.664062 -32.359375 -9.050781 -35.765625 -13 C -39.179688 -16.957031 -40.53125 -22.019531 -39.8125 -28.1875 C -39.113281 -34.09375 -36.890625 -38.488281 -33.140625 -41.375 C -29.398438 -44.269531 -24.566406 -45.367188 -18.640625 -44.671875 L -13.109375 -44.03125 L -16.265625 -17.09375 C -13.015625 -16.832031 -10.378906 -17.488281 -8.359375 -19.0625 C -6.335938 -20.644531 -5.132812 -23.054688 -4.75 -26.296875 C -4.457031 -28.804688 -4.4375 -31.210938 -4.6875 -33.515625 C -4.945312 -35.816406 -5.503906 -38.257812 -6.359375 -40.84375 L 2.453125 -39.8125 C 3.203125 -37.695312 3.6875 -35.476562 3.90625 -33.15625 C 4.132812 -30.832031 4.054688 -28.039062 3.671875 -24.78125 Z M 3.671875 -24.78125 "/></g></g></g><g fill="#ffffff" fill-opacity="1"><g transform="translate(648.453117, 452.17908)"><g><path d="M 31.375 17.171875 L 31.546875 20.921875 C 31.710938 24.597656 32.445312 27.285156 33.75 28.984375 C 35.0625 30.679688 37.03125 31.472656 39.65625 31.359375 C 42.257812 31.234375 44.070312 30.25 45.09375 28.40625 C 46.125 26.570312 46.550781 23.78125 46.375 20.03125 L 46.21875 16.5 Z M 21.921875 17.609375 L 0.84375 18.5625 L 0.3125 6.921875 L 55.21875 4.421875 L 55.953125 20.40625 C 56.285156 27.875 55.175781 33.457031 52.625 37.15625 C 50.082031 40.863281 46.039062 42.84375 40.5 43.09375 C 37.28125 43.238281 34.367188 42.476562 31.765625 40.8125 C 29.160156 39.144531 27.070312 36.722656 25.5 33.546875 C 13.539062 42.367188 5.8125 48.113281 2.3125 50.78125 L 1.71875 37.859375 L 22.203125 23.796875 Z M 21.921875 17.609375 "/></g></g></g><g fill="#ffffff" fill-opacity="1"><g transform="translate(650.355406, 503.965294)"><g><path d="M 29.21875 29.953125 C 29.707031 27.578125 29.332031 25.554688 28.09375 23.890625 C 26.863281 22.222656 24.882812 21.007812 22.15625 20.25 L 18.90625 36 C 21.6875 36.519531 23.972656 36.238281 25.765625 35.15625 C 27.566406 34.070312 28.71875 32.335938 29.21875 29.953125 Z M -5.796875 24.375 C -4.429688 17.738281 -1.535156 12.929688 2.890625 9.953125 C 7.316406 6.972656 12.882812 6.175781 19.59375 7.5625 C 26.488281 8.988281 31.460938 11.816406 34.515625 16.046875 C 37.566406 20.285156 38.46875 25.445312 37.21875 31.53125 C 36.007812 37.351562 33.414062 41.539062 29.4375 44.09375 C 25.457031 46.644531 20.546875 47.316406 14.703125 46.109375 L 9.25 44.984375 L 14.734375 18.4375 C 11.503906 17.90625 8.8125 18.335938 6.65625 19.734375 C 4.507812 21.128906 3.109375 23.421875 2.453125 26.609375 C 1.941406 29.085938 1.710938 31.484375 1.765625 33.796875 C 1.828125 36.109375 2.171875 38.585938 2.796875 41.234375 L -5.890625 39.4375 C -6.460938 37.269531 -6.753906 35.019531 -6.765625 32.6875 C -6.785156 30.351562 -6.460938 27.582031 -5.796875 24.375 Z M -5.796875 24.375 "/></g></g></g><g fill="#ffffff" fill-opacity="1"><g transform="translate(640.306333, 550.02984)"><g><path d="M -10.265625 20.6875 C -4.835938 8.78125 4.410156 5.8125 17.484375 11.78125 C 23.972656 14.738281 28.195312 18.617188 30.15625 23.421875 C 32.113281 28.234375 31.71875 33.660156 28.96875 39.703125 C 26.945312 44.128906 24.265625 47.703125 20.921875 50.421875 L 14.25 43.65625 C 15.664062 42.3125 16.90625 41.03125 17.96875 39.8125 C 19.03125 38.59375 19.890625 37.273438 20.546875 35.859375 C 23.015625 30.429688 20.390625 25.957031 12.671875 22.4375 C 5.203125 19.03125 0.234375 20.039062 -2.234375 25.46875 C -3.148438 27.476562 -3.726562 29.457031 -3.96875 31.40625 C -4.21875 33.363281 -4.160156 35.460938 -3.796875 37.703125 L -12.734375 33.625 C -13.035156 31.445312 -13 29.398438 -12.625 27.484375 C -12.25 25.578125 -11.460938 23.3125 -10.265625 20.6875 Z M -10.265625 20.6875 "/></g></g></g><g fill="#ffffff" fill-opacity="1"><g transform="translate(623.142991, 587.711737)"><g><path d="M 33.484375 25.40625 L 25.890625 35.421875 L 2.28125 27.4375 C 0.226562 26.726562 -1.988281 25.625 -4.375 24.125 L -4.515625 24.3125 C -2.628906 26.09375 -1.015625 27.988281 0.328125 30 L 14.453125 50.5 L 7.015625 60.296875 L -20 17.484375 C -22.519531 13.535156 -23.734375 9.695312 -23.640625 5.96875 C -23.546875 2.25 -22.28125 -1.21875 -19.84375 -4.4375 C -18.644531 -6.007812 -17.304688 -7.429688 -15.828125 -8.703125 L -8.578125 -3.203125 C -9.671875 -2.296875 -10.707031 -1.195312 -11.6875 0.09375 C -12.914062 1.707031 -13.492188 3.492188 -13.421875 5.453125 C -13.347656 7.410156 -12.566406 9.492188 -11.078125 11.703125 L -9.84375 13.46875 Z M 33.484375 25.40625 "/></g></g></g><g fill="#ffffff" fill-opacity="1"><g transform="translate(595.267044, 623.758657)"><g><path d="M -18.109375 14.3125 C -8.117188 5.875 1.507812 7.144531 10.78125 18.125 C 15.382812 23.570312 17.539062 28.882812 17.25 34.0625 C 16.96875 39.25 14.289062 43.984375 9.21875 48.265625 C 5.5 51.398438 1.550781 53.484375 -2.625 54.515625 L -5.765625 45.546875 C -3.910156 44.953125 -2.242188 44.332031 -0.765625 43.6875 C 0.710938 43.039062 2.050781 42.210938 3.25 41.203125 C 7.800781 37.359375 7.34375 32.195312 1.875 25.71875 C -3.425781 19.4375 -8.351562 18.21875 -12.90625 22.0625 C -14.59375 23.488281 -15.960938 25.035156 -17.015625 26.703125 C -18.078125 28.367188 -18.921875 30.285156 -19.546875 32.453125 L -25.875 24.953125 C -25.21875 22.859375 -24.3125 21.023438 -23.15625 19.453125 C -22 17.890625 -20.316406 16.175781 -18.109375 14.3125 Z M -18.109375 14.3125 "/></g></g></g><g fill="#ffffff" fill-opacity="1"><g transform="translate(562.125737, 650.475068)"><g><path d="M -15.125 8.765625 L -5.203125 3.015625 L 24.140625 53.625 L 14.21875 59.375 Z M -15.125 8.765625 "/></g></g></g><g fill="#ffffff" fill-opacity="1"><g transform="translate(539.79681, 664.322508)"><g><path d="M -10.65625 40.453125 C -8.363281 39.648438 -6.820312 38.296875 -6.03125 36.390625 C -5.238281 34.484375 -5.21875 32.15625 -5.96875 29.40625 L -21.15625 34.734375 C -20.164062 37.390625 -18.742188 39.207031 -16.890625 40.1875 C -15.035156 41.175781 -12.957031 41.265625 -10.65625 40.453125 Z M -23.890625 7.578125 C -17.492188 5.335938 -11.878906 5.347656 -7.046875 7.609375 C -2.222656 9.867188 1.316406 14.234375 3.578125 20.703125 C 5.898438 27.347656 6.03125 33.066406 3.96875 37.859375 C 1.914062 42.660156 -2.035156 46.085938 -7.890625 48.140625 C -13.503906 50.097656 -18.425781 50.023438 -22.65625 47.921875 C -26.894531 45.828125 -30.003906 41.960938 -31.984375 36.328125 L -33.8125 31.078125 L -8.234375 22.125 C -9.429688 19.082031 -11.179688 16.992188 -13.484375 15.859375 C -15.785156 14.734375 -18.472656 14.707031 -21.546875 15.78125 C -23.929688 16.625 -26.101562 17.664062 -28.0625 18.90625 C -30.019531 20.144531 -31.96875 21.71875 -33.90625 23.625 L -36.84375 15.25 C -35.289062 13.632812 -33.515625 12.222656 -31.515625 11.015625 C -29.523438 9.804688 -26.984375 8.660156 -23.890625 7.578125 Z M -23.890625 7.578125 "/></g></g></g><g fill="#dc3c4d" fill-opacity="0.302"><g transform="translate(445.629792, -15.861456)"><g><path d="M 5.722656 15.308594 C 6.613281 15.824219 7.4375 15.949219 8.453125 15.636719 C 8.972656 15.546875 9.488281 15.457031 9.964844 15.109375 C 11.453125 14.449219 13.671875 12.597656 16.746094 9.527344 C 20.296875 6.105469 25.1875 2.71875 31.445312 -0.5 C 37.570312 -3.699219 47.109375 -8.023438 60.082031 -13.34375 C 75.5625 -19.628906 85.46875 -24.148438 90.035156 -27.078125 C 92.105469 -28.238281 93.140625 -29.21875 93.027344 -29.867188 C 92.914062 -30.515625 91.269531 -30.765625 88.089844 -30.617188 C 87.308594 -30.480469 86.273438 -30.300781 84.976562 -30.078125 C 83.441406 -29.675781 81.777344 -29.253906 79.855469 -28.789062 C 76.03125 -27.726562 71.710938 -26.445312 66.609375 -25.027344 C 61.40625 -23.457031 56.328125 -21.910156 51.382812 -20.386719 C 46.328125 -18.710938 41.664062 -17.101562 37.496094 -15.710938 C 33.21875 -14.167969 30.324219 -13.132812 28.597656 -12.300781 C 26.507812 -11.269531 24.886719 -10.589844 23.851562 -10.410156 C 22.703125 -10.078125 22.164062 -10.117188 22.097656 -10.503906 C 21.921875 -10.742188 22.277344 -12.542969 23.058594 -15.75 C 23.839844 -18.957031 24.789062 -22.730469 26.0625 -26.957031 C 26.671875 -29.601562 27.753906 -33.394531 29.019531 -38.425781 C 30.203125 -43.171875 31.421875 -48.460938 32.835938 -54.183594 C 33.535156 -57.109375 34.207031 -60.164062 35.011719 -63.242188 C 35.554688 -66.277344 36.25 -69.203125 36.945312 -72.128906 C 37.535156 -74.902344 38.230469 -77.828125 38.902344 -80.886719 C 39.597656 -83.8125 40.292969 -86.738281 40.882812 -89.511719 C 42.105469 -94.800781 43.15625 -99.523438 44.148438 -103.839844 C 45.160156 -108.023438 45.941406 -111.230469 46.382812 -113.308594 C 47.480469 -117.777344 48.128906 -120.960938 48.226562 -122.714844 C 48.347656 -124.339844 48.015625 -125.484375 47.339844 -126.300781 C 46.730469 -126.730469 46.121094 -127.160156 45.558594 -127.328125 C 45.015625 -127.371094 44.605469 -127.433594 44.214844 -127.363281 C 43.957031 -127.320312 43.847656 -127.167969 43.71875 -127.144531 C 42.621094 -126.554688 40.511719 -120.976562 37.289062 -110.265625 C 34.089844 -99.425781 30.175781 -84.984375 25.789062 -67.125 C 23.421875 -57.628906 21.015625 -48.394531 18.667969 -39.570312 C 16.210938 -30.597656 13.839844 -22.703125 11.824219 -15.808594 C 10.636719 -11.863281 9.621094 -8.480469 8.664062 -5.507812 C 7.601562 -2.386719 6.601562 0.328125 5.878906 2.320312 C 4.21875 6.617188 3.414062 9.695312 3.449219 11.425781 C 3.386719 11.839844 3.429688 12.097656 3.476562 12.359375 C 3.699219 13.65625 4.421875 14.734375 5.722656 15.308594 Z M 5.722656 15.308594 "/></g></g></g></svg>